<svg width="24" height="24" viewBox="0 0 24 24" fill="none" xmlns="http://www.w3.org/2000/svg">
<path d="M11.2381 12.2698L16 21H23L15 6L11.2381 12.2698ZM14 21L8 10L2 21H14Z" fill="#6B32FF"/>
<path d="M5.96682 9.19379L6.2134 8.62811C6.65288 7.61947 7.44451 6.81641 8.43228 6.37708L9.19188 6.03922C9.60271 5.85653 9.60271 5.25881 9.19188 5.07612L8.4748 4.75714C7.46158 4.30651 6.65577 3.47373 6.22382 2.43083L5.97063 1.81953C5.79417 1.39349 5.20578 1.39349 5.02932 1.81953L4.77612 2.43083C4.34417 3.47373 3.53838 4.30651 2.5252 4.75714L1.80805 5.07612C1.39732 5.25881 1.39732 5.85653 1.80805 6.03922L2.56767 6.37708C3.55545 6.81641 4.34706 7.61947 4.78656 8.62811L5.03312 9.19379C5.21357 9.60792 5.78637 9.60792 5.96682 9.19379Z" fill="url(#paint0_radial_31224_1544)"/>
<path d="M5.96682 9.19379L6.2134 8.62811C6.65288 7.61947 7.44451 6.81641 8.43228 6.37708L9.19188 6.03922C9.60271 5.85653 9.60271 5.25881 9.19188 5.07612L8.4748 4.75714C7.46158 4.30651 6.65577 3.47373 6.22382 2.43083L5.97063 1.81953C5.79417 1.39349 5.20578 1.39349 5.02932 1.81953L4.77612 2.43083C4.34417 3.47373 3.53838 4.30651 2.5252 4.75714L1.80805 5.07612C1.39732 5.25881 1.39732 5.85653 1.80805 6.03922L2.56767 6.37708C3.55545 6.81641 4.34706 7.61947 4.78656 8.62811L5.03312 9.19379C5.21357 9.60792 5.78637 9.60792 5.96682 9.19379Z" fill="url(#paint1_linear_31224_1544)"/>
<path d="M5.96682 9.19379L6.2134 8.62811C6.65288 7.61947 7.44451 6.81641 8.43228 6.37708L9.19188 6.03922C9.60271 5.85653 9.60271 5.25881 9.19188 5.07612L8.4748 4.75714C7.46158 4.30651 6.65577 3.47373 6.22382 2.43083L5.97063 1.81953C5.79417 1.39349 5.20578 1.39349 5.02932 1.81953L4.77612 2.43083C4.34417 3.47373 3.53838 4.30651 2.5252 4.75714L1.80805 5.07612C1.39732 5.25881 1.39732 5.85653 1.80805 6.03922L2.56767 6.37708C3.55545 6.81641 4.34706 7.61947 4.78656 8.62811L5.03312 9.19379C5.21357 9.60792 5.78637 9.60792 5.96682 9.19379Z" fill="url(#paint2_linear_31224_1544)"/>
<path d="M5.96682 9.19379L6.2134 8.62811C6.65288 7.61947 7.44451 6.81641 8.43228 6.37708L9.19188 6.03922C9.60271 5.85653 9.60271 5.25881 9.19188 5.07612L8.4748 4.75714C7.46158 4.30651 6.65577 3.47373 6.22382 2.43083L5.97063 1.81953C5.79417 1.39349 5.20578 1.39349 5.02932 1.81953L4.77612 2.43083C4.34417 3.47373 3.53838 4.30651 2.5252 4.75714L1.80805 5.07612C1.39732 5.25881 1.39732 5.85653 1.80805 6.03922L2.56767 6.37708C3.55545 6.81641 4.34706 7.61947 4.78656 8.62811L5.03312 9.19379C5.21357 9.60792 5.78637 9.60792 5.96682 9.19379Z" fill="url(#paint3_radial_31224_1544)" style="mix-blend-mode:multiply"/>
<defs>
<radialGradient id="paint0_radial_31224_1544" cx="0" cy="0" r="1" gradientTransform="matrix(-6.12555 -8.14621 3.22023 -6.24882 7.62555 9.50439)" gradientUnits="userSpaceOnUse">
<stop stop-color="white" stop-opacity="0.05"/>
<stop offset="0.96727" stop-color="white"/>
</radialGradient>
<linearGradient id="paint1_linear_31224_1544" x1="1.5" y1="9.50439" x2="11.1524" y2="5.76196" gradientUnits="userSpaceOnUse">
<stop stop-color="#5B73FF"/>
<stop offset="1" stop-color="white" stop-opacity="0"/>
</linearGradient>
<linearGradient id="paint2_linear_31224_1544" x1="9.5" y1="1.5" x2="-0.15244" y2="5.24243" gradientUnits="userSpaceOnUse">
<stop stop-color="#DF9AFF"/>
<stop offset="1" stop-color="white" stop-opacity="0"/>
</linearGradient>
<radialGradient id="paint3_radial_31224_1544" cx="0" cy="0" r="1" gradientTransform="matrix(-6.12555 -8.14621 3.22023 -6.24882 7.62555 9.50439)" gradientUnits="userSpaceOnUse">
<stop offset="0.0327301" stop-color="#CDF0FF"/>
<stop offset="1" stop-color="white" stop-opacity="0.05"/>
</radialGradient>
</defs>
</svg>
